<?xml version="1.0" encoding="UTF-8"?>
<svg width="284px" height="94px" viewBox="0 0 284 94" version="1.1" xmlns="http://www.w3.org/2000/svg" xmlns:xlink="http://www.w3.org/1999/xlink">
    <title>Group 3</title>
    <defs>
        <polygon id="path-1" points="0 0 284 0 284 94 0 94"></polygon>
    </defs>
    <g id="Page-1" stroke="none" stroke-width="1" fill="none" fill-rule="evenodd">
        <g id="DISTRIBUIDORES" transform="translate(-258.000000, -32.000000)">
            <g id="Group-3" transform="translate(258.000000, 32.000000)">
                <mask id="mask-2" fill="white">
                    <use xlink:href="#path-1"></use>
                </mask>
                <g id="Clip-2"></g>
                <path d="M183.172022,47 C183.172022,38.4428136 176.263483,31.4804407 167.772202,31.4804407 C164.633843,31.4804407 161.75236,32.4347797 159.371865,34.0853559 L159.371865,19.6698983 C159.371865,18.1977627 158.183213,16.9980678 156.723326,16.9980678 L151.368809,16.9980678 L151.368809,62.5211525 L156.723326,62.5211525 C158.162472,62.5211525 159.336764,61.3565085 159.368674,59.9130508 C161.749169,61.5652203 164.633843,62.5211525 167.772202,62.5211525 C176.263483,62.5211525 183.172022,55.5587797 183.172022,47 L183.172022,47 Z M159.371865,47.0637288 L159.371865,46.9378644 C159.405371,42.5979322 162.92027,39.0769153 167.234517,39.0769153 C171.569506,39.0769153 175.097169,42.6313898 175.097169,47 C175.097169,51.3717966 171.569506,54.9230847 167.234517,54.9230847 C162.92027,54.9230847 159.405371,51.403661 159.371865,47.0637288 L159.371865,47.0637288 Z M46.0383146,88.7328136 C23.5337079,88.7328136 5.22368539,70.0108814 5.22368539,47 C5.22368539,23.9875254 23.5337079,5.26718644 46.0383146,5.26718644 L55.0816404,5.26718644 C56.5239775,5.26718644 57.6934831,4.08661017 57.6934831,2.63359322 C57.6934831,1.17898305 56.5239775,0 55.0816404,0 L46.0383146,0 C20.6522247,0 0,21.0830847 0,47 C0,72.915322 20.6522247,94 46.0383146,94 L55.0816404,94 C56.5239775,94 57.6934831,92.8194237 57.6934831,91.3648136 L57.6934831,81.6190847 C57.6934831,80.1644746 56.5239775,78.9854915 55.0816404,78.9854915 L45.7766517,78.9854915 C28.532427,78.9854915 14.5031461,64.6369492 14.5031461,47 C14.5031461,29.3614576 28.532427,15.0129153 45.7766517,15.0129153 L52.4697978,15.0129153 L52.4697978,19.6348475 L46.1212809,19.6348475 C31.2001124,19.6348475 19.0615056,32.0221356 19.0615056,47.2469492 C19.0615056,62.4717627 31.2001124,74.8574576 46.1212809,74.8574576 L55.0816404,74.8574576 C56.5239775,74.8574576 57.6934831,73.6800678 57.6934831,72.2254576 L57.6934831,62.3554576 C57.6934831,60.9024407 56.5239775,59.7234576 55.0816404,59.7234576 L46.2441348,59.7234576 C39.5302472,59.7234576 34.067236,54.1264746 34.067236,47.2469492 C34.067236,40.3674237 39.5302472,34.7704407 46.2441348,34.7704407 L55.0816404,34.7704407 C56.5239775,34.7704407 57.6934831,33.5914576 57.6934831,32.1368475 C57.6934831,30.6822373 56.5239775,29.5048475 55.0816404,29.5048475 L46.2441348,29.5048475 C36.6503596,29.5048475 28.8435506,37.4629831 28.8435506,47.2469492 C28.8435506,57.029322 36.6503596,64.9906441 46.2441348,64.9906441 L52.4697978,64.9906441 L52.4697978,69.5918644 L46.1212809,69.5918644 C34.08,69.5918644 24.285191,59.567322 24.285191,47.2469492 C24.285191,34.9249831 34.08,24.9020339 46.1212809,24.9020339 L55.0816404,24.9020339 C56.5239775,24.9020339 57.6934831,23.7230508 57.6934831,22.2684407 L57.6934831,12.379322 C57.6934831,10.9247119 56.5239775,9.74572881 55.0816404,9.74572881 L45.7766517,9.74572881 C25.6509438,9.74572881 9.27946067,26.4586102 9.27946067,47 C9.27946067,67.5397966 25.6509438,84.252678 45.7766517,84.252678 L52.4697978,84.252678 L52.4697978,88.7328136 L46.0383146,88.7328136 Z M276.051191,33.7507797 C273.637191,31.9361017 270.73018,30.9594576 267.633303,30.9594576 C259.140427,30.9594576 252.231888,38.2229492 252.231888,47.1481695 C252.231888,56.0765763 259.140427,63.3384746 267.633303,63.3384746 C270.725393,63.3384746 273.627618,62.3650169 276.041618,60.5567119 C276.264989,61.8042034 277.346742,62.7537627 278.647079,62.7537627 L284,62.7537627 L284,31.6174576 L278.647079,31.6174576 C277.369079,31.6174576 276.298494,32.5335593 276.051191,33.7507797 L276.051191,33.7507797 Z M275.996944,47.9288475 C275.623596,52.1301695 272.255483,55.431322 268.169393,55.431322 C263.834404,55.431322 260.306742,51.7159322 260.306742,47.1481695 C260.306742,42.582 263.834404,38.8682034 268.169393,38.8682034 C272.255483,38.8682034 275.623596,42.1677627 275.996944,46.370678 L275.996944,47.9288475 Z M101.579461,63.8451186 C107.481236,63.8451186 112.987326,60.6411525 115.948584,55.4838983 L116.122494,55.1811864 L111.48436,52.4838644 C111.034427,52.17 110.504719,52.0027119 109.957461,52.0027119 C109.164494,52.0027119 108.414607,52.3548136 107.913618,52.9538644 C107.894472,52.9713898 107.876921,52.9857288 107.860966,53.0048475 C106.243124,54.7637627 103.953573,55.7690847 101.579461,55.7690847 C96.847191,55.7690847 92.997236,51.8911864 92.997236,47.122678 C92.997236,42.3541695 96.847191,38.4730847 101.579461,38.4730847 C103.996652,38.4730847 106.316517,39.5118644 107.945528,41.3281356 L107.96627,41.3504407 C108.476831,41.9112542 109.199596,42.234678 109.951079,42.234678 C110.308472,42.234678 110.670652,42.1582034 111.002517,42.018 L111.01209,42.0355254 L116.122494,39.0625763 L115.948584,38.7614576 C112.987326,33.6026102 107.481236,30.3986441 101.579461,30.3986441 C92.429236,30.3986441 84.9846067,37.9011186 84.9846067,47.122678 C84.9846067,56.3442373 92.429236,63.8451186 101.579461,63.8451186 L101.579461,63.8451186 Z M235.999213,63.8451186 C241.902584,63.8451186 247.408674,60.6411525 250.369933,55.4838983 L250.543843,55.1811864 L245.904112,52.4838644 C245.45418,52.17 244.926067,52.0027119 244.377213,52.0027119 C243.584247,52.0027119 242.835955,52.3548136 242.333371,52.9538644 C242.314225,52.9713898 242.29827,52.9857288 242.282315,53.0048475 C240.662876,54.7637627 238.374921,55.7690847 235.999213,55.7690847 C231.270135,55.7690847 227.416989,51.8911864 227.416989,47.122678 C227.416989,42.3541695 231.270135,38.4730847 235.999213,38.4730847 C238.418,38.4730847 240.73627,39.5118644 242.365281,41.3281356 L242.387618,41.3504407 C242.896584,41.9112542 243.619348,42.234678 244.370831,42.234678 C244.72982,42.234678 245.090404,42.1582034 245.42227,42.018 L245.431843,42.0355254 L250.543843,39.0625763 L250.369933,38.7614576 C247.408674,33.6026102 241.902584,30.3986441 235.999213,30.3986441 C226.850584,30.3986441 219.405955,37.9011186 219.405955,47.122678 C219.405955,56.3442373 226.850584,63.8451186 235.999213,63.8451186 L235.999213,63.8451186 Z M216.176652,59.878 L216.176652,31.3402373 L208.172,31.3402373 L208.172,59.878 C208.172,61.3517288 209.360652,62.5498305 210.822135,62.5498305 L213.524921,62.5498305 C214.986404,62.5498305 216.176652,61.3517288 216.176652,59.878 L216.176652,59.878 Z M194.439483,60.0421017 L194.439483,48.2538644 C194.485753,43.7562034 197.833124,39.9738983 202.268629,39.4353898 L202.41382,39.4178644 L202.417011,39.4083051 C203.679056,39.1900339 204.610831,38.084339 204.610831,36.7778983 L204.610831,30.9594576 L204.363528,30.9594576 C200.53591,30.9594576 197.202899,32.242 194.439483,34.7768136 L194.439483,31.5457627 L189.086562,31.5457627 C187.625079,31.5457627 186.436427,32.7438644 186.436427,34.216 L186.436427,62.712339 L191.789348,62.712339 C193.249236,62.712339 194.439483,61.5142373 194.439483,60.0421017 L194.439483,60.0421017 Z M212.175124,27.325322 C214.365753,27.325322 216.147933,25.5297627 216.147933,23.3215593 C216.147933,21.1133559 214.365753,19.3177966 212.175124,19.3177966 C209.984494,19.3177966 208.202315,21.1133559 208.202315,23.3215593 C208.202315,25.5297627 209.984494,27.325322 212.175124,27.325322 L212.175124,27.325322 Z M133.213551,62.7282712 C141.111303,62.7282712 147.547573,56.3187458 147.68,48.3924746 L147.686382,48.3924746 L147.686382,48.1439322 L147.686382,47.8953898 L147.686382,31.5441695 L141.82609,31.5441695 C140.808157,31.5441695 139.924247,32.2738644 139.724809,33.2775932 L139.683326,47.8953898 L139.68173,47.8953898 L139.68173,48.1439322 C139.68173,51.7382373 136.779506,54.6617966 133.213551,54.6617966 C129.646,54.6617966 126.745371,51.7382373 126.745371,48.1439322 L126.745371,47.8953898 L126.745371,33.7061695 C126.745371,32.5144407 125.783281,31.5441695 124.601011,31.5441695 L118.742315,31.5441695 L118.742315,47.8953898 L118.742315,48.1439322 L118.742315,48.3924746 L118.748697,48.3924746 C118.881124,56.3187458 125.315798,62.7282712 133.213551,62.7282712 L133.213551,62.7282712 Z M132.200404,28.7464746 C132.725326,29.2770169 133.583708,29.2770169 134.110225,28.7464746 L139.17436,23.6449831 C139.700876,23.1128475 139.700876,22.249322 139.17436,21.7187797 L137.18636,19.7161017 C136.659843,19.1855593 135.803056,19.1855593 135.274944,19.7161017 L130.210809,24.8191864 C129.685888,25.3497288 129.685888,26.2132542 130.210809,26.7453898 L132.200404,28.7464746 Z M88.6542697,80.2887458 C87.8740674,80.2887458 87.3124494,79.8474237 87.1066292,79.0603729 L91.7240225,79.0603729 C91.8692135,76.6402712 90.725236,75.1044068 88.4085618,75.1044068 C86.3758876,75.1044068 84.9846067,76.4554576 84.9846067,78.5075254 C84.9846067,80.5229492 86.326427,81.874 88.4707865,81.874 C89.6769888,81.874 90.6630112,81.4438305 91.3331236,80.7077627 L90.2242472,79.6132203 C89.7870787,80.0561356 89.2254607,80.2887458 88.6542697,80.2887458 L88.6542697,80.2887458 Z M88.4356854,76.5781356 C89.1903596,76.5781356 89.7009213,77.1054915 89.7009213,77.9180339 L87.0699326,77.9180339 C87.2039551,77.1198305 87.7033483,76.5781356 88.4356854,76.5781356 L88.4356854,76.5781356 Z M98.8431685,75.1776949 L96.5392584,75.1776949 L95.3713483,77.0815932 L94.2736404,75.1776949 L91.861236,75.1776949 L93.9577303,78.4087458 L91.7160449,81.7991186 L94.0295281,81.7991186 L95.3713483,79.7247458 L96.5647865,81.7991186 L98.9899551,81.7991186 L96.7594382,78.396 L98.8431685,75.1776949 Z M104.025371,75.1044068 C103.195708,75.1044068 102.527191,75.4485424 102.062899,76.0507797 L102.062899,75.1776949 L99.955236,75.1776949 L99.955236,84.1825763 L102.062899,84.1825763 L102.062899,80.9164746 C102.527191,81.5282712 103.221236,81.874 104.073236,81.874 C105.912854,81.874 107.107888,80.5341017 107.107888,78.5202712 C107.107888,76.4682034 105.877753,75.1044068 104.025371,75.1044068 L104.025371,75.1044068 Z M103.513213,80.1899661 C102.659618,80.1899661 102.062899,79.4905424 102.062899,78.4597288 C102.062899,77.4512203 102.659618,76.7390508 103.513213,76.7390508 C104.390742,76.7390508 104.987461,77.4512203 104.987461,78.4597288 C104.987461,79.4793898 104.390742,80.1899661 103.513213,80.1899661 L103.513213,80.1899661 Z M111.118989,75.1044068 C109.083124,75.1044068 107.695034,76.4554576 107.695034,78.5075254 C107.695034,80.5229492 109.035258,81.874 111.179618,81.874 C112.38582,81.874 113.371843,81.4438305 114.043551,80.7077627 L112.934674,79.6132203 C112.49591,80.0561356 111.935888,80.2887458 111.364697,80.2887458 C110.582899,80.2887458 110.022876,79.8474237 109.815461,79.0603729 L114.432854,79.0603729 C114.57964,76.6402712 113.434067,75.1044068 111.118989,75.1044068 L111.118989,75.1044068 Z M109.778764,77.9180339 C109.912787,77.1198305 110.41218,76.5781356 111.142921,76.5781356 C111.899191,76.5781356 112.409753,77.1054915 112.409753,77.9180339 L109.778764,77.9180339 Z M117.690876,76.2961356 L117.690876,75.1776949 L115.583213,75.1776949 L115.583213,81.8007119 L117.690876,81.8007119 L117.690876,78.3975932 C117.799371,77.4639661 118.605101,76.8856271 119.822472,76.9971525 L119.822472,75.0805085 C118.884315,75.091661 118.140809,75.5218305 117.690876,76.2961356 L117.690876,76.2961356 Z M123.796876,80.1915593 C123.407573,80.2027119 123.187393,79.9844407 123.187393,79.4650508 L123.187393,76.8728814 L124.904157,76.8728814 L124.904157,75.4740339 L123.187393,75.4740339 L123.187393,73.6434237 L121.090899,73.6434237 L121.090899,75.4851864 L120.17827,75.4851864 L120.17827,76.8728814 L121.090899,76.8728814 L121.090899,79.7980339 C121.090899,81.1745763 122.005124,81.8994915 123.273551,81.8994915 C123.905371,81.8994915 124.551551,81.7258305 125.027011,81.4454237 L124.61218,79.9701017 C124.29627,80.1055254 124.015461,80.1915593 123.796876,80.1915593 L123.796876,80.1915593 Z M129.100337,75.1044068 C126.943213,75.1044068 125.505663,76.4443051 125.505663,78.4836271 C125.505663,80.5229492 126.943213,81.874 129.100337,81.874 C131.244697,81.874 132.682247,80.5229492 132.682247,78.4836271 C132.682247,76.4443051 131.244697,75.1044068 129.100337,75.1044068 L129.100337,75.1044068 Z M129.100337,80.2282034 C128.222809,80.2282034 127.62609,79.538339 127.62609,78.5075254 C127.62609,77.4878644 128.222809,76.7884407 129.100337,76.7884407 C129.965101,76.7884407 130.56182,77.4878644 130.56182,78.5075254 C130.56182,79.538339 129.965101,80.2282034 129.100337,80.2282034 L129.100337,80.2282034 Z M135.439281,76.9971525 C135.439281,76.689661 135.70573,76.5414915 136.083865,76.5414915 C136.634315,76.5414915 137.363461,76.7756949 138.156427,77.2042712 L138.874404,75.829322 C138.07027,75.3497627 137.120944,75.0805085 136.170022,75.0805085 C134.646315,75.0805085 133.502337,75.8165763 133.502337,77.1803729 C133.489573,79.5032881 136.888,78.9982373 136.888,79.9701017 C136.888,80.2775932 136.584854,80.4241695 136.170022,80.4241695 C135.439281,80.4241695 134.585685,80.1294237 133.843775,79.6004746 L133.172067,80.9515254 C133.965034,81.5681017 135.026045,81.8851525 136.122157,81.8851525 C137.704899,81.8851525 138.887196,81.136339 138.887196,79.7741356 C138.898337,77.4639661 135.439281,77.9068814 135.439281,76.9971525 L135.439281,76.9971525 Z M145.774966,75.1044068 C143.739101,75.1044068 142.351011,76.4554576 142.351011,78.5075254 C142.351011,80.5229492 143.691236,81.874 145.837191,81.874 C147.041798,81.874 148.029416,81.4438305 148.699528,80.7077627 L147.589056,79.6132203 C147.151888,80.0561356 146.59027,80.2887458 146.019079,80.2887458 C145.240472,80.2887458 144.678854,79.8474237 144.471438,79.0603729 L149.088831,79.0603729 C149.234022,76.6402712 148.090045,75.1044068 145.774966,75.1044068 L145.774966,75.1044068 Z M144.434742,77.9180339 C144.568764,77.1198305 145.068157,76.5781356 145.798899,76.5781356 C146.555169,76.5781356 147.06573,77.1054915 147.06573,77.9180339 L144.434742,77.9180339 Z M154.539079,75.0805085 C153.564225,75.091661 152.809551,75.4851864 152.346854,76.2594915 L152.346854,75.1776949 L150.237596,75.1776949 L150.237596,81.7991186 L152.346854,81.7991186 L152.346854,78.2988136 C152.431416,77.5117627 152.91964,76.9589153 153.687079,76.9589153 C154.393888,76.9589153 154.84382,77.4384746 154.84382,78.2127797 L154.84382,81.7991186 L156.940315,81.7991186 L156.940315,77.6232881 C156.940315,76.074678 155.989393,75.0805085 154.539079,75.0805085 L154.539079,75.0805085 Z M165.399685,75.1044068 C164.573213,75.1044068 163.903101,75.4485424 163.440404,76.0507797 L163.440404,75.1776949 L161.331146,75.1776949 L161.331146,84.1825763 L163.440404,84.1825763 L163.440404,80.9164746 C163.903101,81.5282712 164.597146,81.874 165.450742,81.874 C167.288764,81.874 168.483798,80.5341017 168.483798,78.5202712 C168.483798,76.4682034 167.252067,75.1044068 165.399685,75.1044068 L165.399685,75.1044068 Z M164.889124,80.1899661 C164.037124,80.1899661 163.440404,79.4905424 163.440404,78.4597288 C163.440404,77.4512203 164.037124,76.7390508 164.889124,76.7390508 C165.766652,76.7390508 166.363371,77.4512203 166.363371,78.4597288 C166.363371,79.4793898 165.766652,80.1899661 164.889124,80.1899661 L164.889124,80.1899661 Z M172.568292,75.0805085 C171.47218,75.0805085 170.546787,75.3497627 169.522472,75.829322 L170.119191,77.2297627 C170.814831,76.8728814 171.532809,76.6769153 172.081663,76.6769153 C172.933663,76.6769153 173.361258,77.0720339 173.361258,77.7220678 L173.361258,77.8192542 L171.630135,77.8192542 C169.997933,77.832 169.109236,78.569661 169.109236,79.8219322 C169.109236,81.0391525 169.961236,81.8994915 171.363685,81.8994915 C172.252382,81.8994915 172.946427,81.6031525 173.372427,81.0391525 L173.372427,81.8007119 L175.432225,81.8007119 L175.432225,77.4751186 C175.421056,75.9774915 174.371213,75.0805085 172.568292,75.0805085 L172.568292,75.0805085 Z M173.361258,79.552678 C173.227236,80.0927797 172.667213,80.4608136 172.00827,80.4608136 C171.424315,80.4608136 171.082876,80.1549153 171.082876,79.6753559 C171.082876,79.1830508 171.398787,78.9631864 172.033798,78.9631864 L173.361258,78.9631864 L173.361258,79.552678 Z M181.233483,75.0805085 C180.260225,75.091661 179.503955,75.4851864 179.041258,76.2594915 L179.041258,75.1776949 L176.935191,75.1776949 L176.935191,81.7991186 L179.041258,81.7991186 L179.041258,78.2988136 C179.127416,77.5117627 179.61564,76.9589153 180.383079,76.9589153 C181.088292,76.9589153 181.541416,77.4384746 181.541416,78.2127797 L181.541416,81.7991186 L183.634719,81.7991186 L183.634719,77.6232881 C183.634719,76.074678 182.683798,75.0805085 181.233483,75.0805085 L181.233483,75.0805085 Z M188.012787,75.1044068 C185.980112,75.1044068 184.590427,76.4554576 184.590427,78.5075254 C184.590427,80.5229492 185.930652,81.874 188.073416,81.874 C189.281213,81.874 190.267236,81.4438305 190.937348,80.7077627 L189.830067,79.6132203 C189.389708,80.0561356 188.829685,80.2887458 188.258494,80.2887458 C187.478292,80.2887458 186.91827,79.8474237 186.710854,79.0603729 L191.326652,79.0603729 C191.473438,76.6402712 190.327865,75.1044068 188.012787,75.1044068 L188.012787,75.1044068 Z M186.672562,77.9180339 C186.806584,77.1198305 187.307573,76.5781356 188.03991,76.5781356 C188.791393,76.5781356 189.305146,77.1054915 189.305146,77.9180339 L186.672562,77.9180339 Z M192.53764,81.8007119 L194.645303,81.8007119 L194.645303,72.6827119 L192.53764,72.6827119 L192.53764,81.8007119 Z M199.265888,75.1044068 C197.230022,75.1044068 195.840337,76.4554576 195.840337,78.5075254 C195.840337,80.5229492 197.180562,81.874 199.326517,81.874 C200.532719,81.874 201.518742,81.4438305 202.188854,80.7077627 L201.079978,79.6132203 C200.641213,80.0561356 200.081191,80.2887458 199.508404,80.2887458 C198.729798,80.2887458 198.166584,79.8474237 197.96236,79.0603729 L202.578157,79.0603729 C202.724944,76.6402712 201.579371,75.1044068 199.265888,75.1044068 L199.265888,75.1044068 Z M197.925663,77.9180339 C198.05809,77.1198305 198.559079,76.5781356 199.28982,76.5781356 C200.044494,76.5781356 200.556652,77.1054915 200.556652,77.9180339 L197.925663,77.9180339 Z M205.34636,76.9971525 C205.34636,76.689661 205.614404,76.5414915 205.994135,76.5414915 C206.541393,76.5414915 207.272135,76.7756949 208.066697,77.2042712 L208.784674,75.829322 C207.980539,75.3497627 207.029618,75.0805085 206.078697,75.0805085 C204.554989,75.0805085 203.411011,75.8165763 203.411011,77.1803729 C203.399843,79.5032881 206.79827,78.9982373 206.79827,79.9701017 C206.79827,80.2775932 206.493528,80.4241695 206.078697,80.4241695 C205.34636,80.4241695 204.49436,80.1294237 203.752449,79.6004746 L203.080742,80.9515254 C203.875303,81.5681017 204.934719,81.8851525 206.029236,81.8851525 C207.613573,81.8851525 208.79587,81.136339 208.79587,79.7741356 C208.807011,77.4639661 205.34636,77.9068814 205.34636,76.9971525 L205.34636,76.9971525 Z M217.317438,76.0507797 C216.853146,75.4373898 216.159101,75.091661 215.294337,75.091661 C213.480247,75.091661 212.272449,76.4315593 212.272449,78.4581356 C212.272449,80.5102034 213.491416,81.8867458 215.342202,81.8867458 C216.183034,81.8867458 216.853146,81.5410169 217.317438,80.9276271 L217.317438,81.7991186 L219.425101,81.7991186 L219.425101,72.6843051 L217.317438,72.6843051 L217.317438,76.0507797 Z M215.85436,80.2409492 C214.980022,80.2409492 214.391281,79.5271864 214.380112,78.5075254 C214.391281,77.4862712 214.980022,76.7884407 215.85436,76.7884407 C216.730292,76.7884407 217.317438,77.4862712 217.317438,78.5075254 C217.317438,79.5271864 216.730292,80.2409492 215.85436,80.2409492 L215.85436,80.2409492 Z M224.047281,75.1044068 C222.013011,75.1044068 220.623326,76.4554576 220.623326,78.5075254 C220.623326,80.5229492 221.961955,81.874 224.10791,81.874 C225.314112,81.874 226.300135,81.4438305 226.970247,80.7077627 L225.862966,79.6132203 C225.424202,80.0561356 224.86418,80.2887458 224.291393,80.2887458 C223.511191,80.2887458 222.951169,79.8474237 222.743753,79.0603729 L227.361146,79.0603729 C227.507933,76.6402712 226.360764,75.1044068 224.047281,75.1044068 L224.047281,75.1044068 Z M222.707056,77.9180339 C222.841079,77.1198305 223.340472,76.5781356 224.072809,76.5781356 C224.825888,76.5781356 225.338045,77.1054915 225.338045,77.9180339 L222.707056,77.9180339 Z M231.458404,80.1788136 C230.641506,80.1788136 230.081483,79.5160339 230.081483,78.4963729 C230.081483,77.5006102 230.641506,76.8234915 231.458404,76.8234915 C232.031191,76.8234915 232.482719,77.0815932 232.787461,77.5133559 L234.296809,76.5924746 C233.725618,75.6461017 232.675775,75.1044068 231.373843,75.1044068 C229.339573,75.1044068 227.961056,76.4697966 227.961056,78.5075254 C227.961056,80.5229492 229.326809,81.874 231.348315,81.874 C232.736404,81.874 233.797416,81.3084068 234.333506,80.3381356 L232.798629,79.43 C232.519416,79.9334576 232.056719,80.1788136 231.458404,80.1788136 L231.458404,80.1788136 Z M238.223348,75.1044068 C236.06782,75.1044068 234.628674,76.4443051 234.628674,78.4836271 C234.628674,80.5229492 236.06782,81.874 238.223348,81.874 C240.369303,81.874 241.806854,80.5229492 241.806854,78.4836271 C241.806854,76.4443051 240.369303,75.1044068 238.223348,75.1044068 L238.223348,75.1044068 Z M238.223348,80.2282034 C237.347416,80.2282034 236.749101,79.538339 236.749101,78.5075254 C236.749101,77.4878644 237.347416,76.7884407 238.223348,76.7884407 C239.088112,76.7884407 239.686427,77.4878644 239.686427,78.5075254 C239.686427,79.538339 239.088112,80.2282034 238.223348,80.2282034 L238.223348,80.2282034 Z M245.050517,76.2961356 L245.050517,75.1776949 L242.944449,75.1776949 L242.944449,81.8007119 L245.050517,81.8007119 L245.050517,78.3975932 C245.160607,77.4639661 245.964742,76.8856271 247.183708,76.9971525 L247.183708,75.0805085 C246.245551,75.091661 245.502045,75.5218305 245.050517,76.2961356 L245.050517,76.2961356 Z M250.912404,75.0805085 C249.817888,75.0805085 248.890899,75.3497627 247.86818,75.829322 L248.463303,77.2297627 C249.157348,76.8728814 249.878517,76.6769153 250.427371,76.6769153 C251.279371,76.6769153 251.705371,77.0720339 251.705371,77.7220678 L251.705371,77.8192542 L249.974247,77.8192542 C248.342045,77.832 247.454944,78.569661 247.454944,79.8219322 C247.454944,81.0391525 248.305348,81.8994915 249.707798,81.8994915 C250.596494,81.8994915 251.290539,81.6031525 251.716539,81.0391525 L251.716539,81.8007119 L253.776337,81.8007119 L253.776337,77.4751186 C253.763573,75.9774915 252.715326,75.0805085 250.912404,75.0805085 L250.912404,75.0805085 Z M251.705371,79.552678 C251.571348,80.0927797 251.011326,80.4608136 250.352382,80.4608136 C249.768427,80.4608136 249.425393,80.1549153 249.425393,79.6753559 C249.425393,79.1830508 249.742899,78.9631864 250.376315,78.9631864 L251.705371,78.9631864 L251.705371,79.552678 Z M258.288427,80.1915593 C257.897528,80.2027119 257.678944,79.9844407 257.678944,79.4650508 L257.678944,76.8728814 L259.395708,76.8728814 L259.395708,75.4740339 L257.678944,75.4740339 L257.678944,73.6434237 L255.582449,73.6434237 L255.582449,75.4851864 L254.66982,75.4851864 L254.66982,76.8728814 L255.582449,76.8728814 L255.582449,79.7980339 C255.582449,81.1745763 256.496674,81.8994915 257.763506,81.8994915 C258.396921,81.8994915 259.044697,81.7258305 259.520157,81.4454237 L259.105326,79.9701017 C258.78782,80.1055254 258.508607,80.1915593 258.288427,80.1915593 L258.288427,80.1915593 Z M261.64218,72.1553559 C260.994404,72.1553559 260.531708,72.6237627 260.531708,73.2737966 C260.531708,73.9381695 260.994404,74.4049831 261.64218,74.4049831 C262.28836,74.4049831 262.751056,73.9381695 262.751056,73.2737966 C262.751056,72.6237627 262.28836,72.1553559 261.64218,72.1553559 L261.64218,72.1553559 Z M260.582764,81.7991186 L262.676067,81.7991186 L262.676067,75.1776949 L260.582764,75.1776949 L260.582764,81.7991186 Z M268.478921,75.1776949 L267.052539,79.8601695 L265.640517,75.1776949 L263.470629,75.1776949 L265.943663,81.7991186 L268.100787,81.7991186 L270.575416,75.1776949 L268.478921,75.1776949 Z M274.158921,75.1044068 C272.004989,75.1044068 270.565843,76.4443051 270.565843,78.4836271 C270.565843,80.5229492 272.004989,81.874 274.158921,81.874 C276.304876,81.874 277.742427,80.5229492 277.742427,78.4836271 C277.742427,76.4443051 276.304876,75.1044068 274.158921,75.1044068 L274.158921,75.1044068 Z M274.158921,80.2282034 C273.284584,80.2282034 272.68627,79.538339 272.68627,78.5075254 C272.68627,77.4878644 273.284584,76.7884407 274.158921,76.7884407 C275.025281,76.7884407 275.622,77.4878644 275.622,78.5075254 C275.622,79.538339 275.025281,80.2282034 274.158921,80.2282034 L274.158921,80.2282034 Z M280.499461,76.9971525 C280.499461,76.689661 280.767506,76.5414915 281.14564,76.5414915 C281.692899,76.5414915 282.425236,76.7756949 283.216607,77.2042712 L283.934584,75.829322 C283.130449,75.3497627 282.181124,75.0805085 281.230202,75.0805085 C279.706494,75.0805085 278.562517,75.8165763 278.562517,77.1803729 C278.549753,79.5032881 281.94818,78.9982373 281.94818,79.9701017 C281.94818,80.2775932 281.645034,80.4241695 281.230202,80.4241695 C280.499461,80.4241695 279.645865,80.1294237 278.903955,79.6004746 L278.232247,80.9515254 C279.025213,81.5681017 280.086225,81.8851525 281.182337,81.8851525 C282.765079,81.8851525 283.947384,81.136339 283.947384,79.7741356 C283.960112,77.4639661 280.499461,77.9068814 280.499461,76.9971525 L280.499461,76.9971525 Z" id="Fill-1" fill="#194F90" mask="url(#mask-2)"></path>
            </g>
        </g>
    </g>
</svg>